Patient4_TMGait_0pt5_02_right_41_EMG.mot
version=1
nRows=13
nColumns=33
inDegrees=no
endheader
time	1LAddLong	2LGlutMax	3LGlutMed	4LIliopsoas	5LSemiMemb	6LBicFemLong	7LRecFem	8LVastMed	9LVastLat	10LGasMed	11LTibAnt	12lTibPost	13LPeroneusLong	14LSol	15LExtDigLong	16LFlexDigLong	17RAddLong	18RGlutMax	19RGlutMed	20RIliopsoas	21RSemiMemb	22RBicFemLong	23RRecFem	24RVastMed	25RVastLat	26RGasMed	27RTibAnt	28RTibPost	29RPeroneusLong	30RSol	31RExtDigLong	32RFlexDigLong
54.95	0.005188	0.066528	0.048676	0.002594	0.020142	-0.023193	0.072174	0.008545	0.008545	0.031891	0.034943	-0.002594	0.1326	0.006714	-0.012817	0.003662	0.00351	-0.038147	-0.22446	0.45532	0.052185	-0.054321	0.086517	-0.065308	0.029907	-0.014191	-0.30899	-0.000153	-0.03952	0.15472	0.000458	-0.02121
54.951	0.002136	0.068054	0.056458	0.009918	0.027924	-0.024872	0.073242	0.007782	0.011902	0.0177	0.02182	0.005341	-0.011902	-0.11444	0.011292	-0.006409	0.012207	-0.049591	-0.23834	0.45715	0.070648	-0.072327	0.10941	-0.018311	0.029907	-0.010071	-0.21179	-0.003357	0.29373	0.13641	0.002747	-0.023041
54.952	0.00473	0.075836	0.077057	0.00412	0.014801	-0.032501	0.066376	0.005341	0.035553	-0.017548	0.027313	0.00824	0.071259	-0.103	0.14221	0.000153	0.022278	-0.018921	-0.1796	0.28427	0.074768	-0.08255	0.088654	-0.096436	0.024261	-0.007935	-0.077362	-0.005035	0.09491	0.10361	0.000305	-0.01236
54.953	0.006561	0.047607	0.072784	0.009308	-0.0177	-0.033875	0.046082	0.004425	0.033722	-0.034637	0.01236	0.001831	-0.089569	-0.033417	0.19928	-0.002136	0.009155	-0.010681	-0.19302	0.14603	0.021973	-0.004578	0.12177	-0.10391	0.010223	-0.009918	-0.00885	-0.005188	-0.13443	0.09613	-0.002289	-0.013733
54.954	0.014954	0.047913	0.026398	0.016174	-0.015106	-0.016327	0.036926	0.007782	0.032806	-0.036163	-0.012817	-0.001678	-0.098572	0.061493	0.099182	0.00061	-0.025024	-0.013733	-0.23544	0.076141	-0.066376	-0.004883	0.12344	-0.12878	0.020599	-0.005951	0.029449	-0.001831	-0.099335	0.093689	-0.000458	-0.006104
54.955	0.016785	0.054932	-0.032196	0.011749	0.091858	-0.019836	0.028229	0.013275	0.028534	0.00351	-0.010986	0.003662	0.000305	0.0914	0.01297	-0.00412	-0.029755	-0.042114	-0.18845	0.02533	-0.16983	0.032196	0.086365	-0.10239	0.005646	-0.005035	0.034485	-0.000458	-0.017242	0.044861	-0.016785	-0.010223
54.956	0.018616	0.057983	-0.014648	0.010071	0.13153	-0.031891	-0.023346	0.007324	0.037537	0.000458	0.047913	0.00061	-0.27863	0.061035	-0.078278	0.010071	-0.013428	-0.039063	-0.13168	-0.024719	-0.089722	0.004425	0.12619	-0.085754	0.003815	-0.002594	0.054932	0.000153	-0.000916	0.006256	-0.001526	-0.003052
54.957	0.018921	0.03006	0.071106	0.007019	0.096283	-0.009003	0.001526	0.005035	0.033722	-0.011902	-0.002747	0.003204	-0.090485	0.041199	-0.168	-0.004578	-0.002136	0.050812	-0.1741	-0.028839	-0.057068	-0.018311	0.11353	-0.11124	0.006256	-0.008392	0.067139	-0.000153	0.005341	-0.018158	-0.001221	-0.004272
54.958	-0.000305	0.026855	0.066376	0.009613	0.068207	0.020905	0.053253	0.008392	-0.028381	0.005646	-0.05188	0.005493	-0.11276	-0.004578	-0.13397	-0.00824	0.014343	0.040283	-0.19134	-0.058289	-0.043945	-0.012054	0.08667	-0.081787	0.028687	0.000153	0.15045	0.000153	-0.009613	-0.015411	-0.005798	0.002594
54.959	0.007629	0.023041	0.021667	-0.000153	0.050201	0.006104	0.031281	0.00473	-0.10864	-0.017395	-0.027618	0.005493	-0.019989	0.012817	-0.083466	-0.00351	0.01297	0.039825	-0.27863	-0.023804	-0.051422	-0.010986	0.068512	-0.078583	0.019379	-0.013428	0.10696	-0.003967	-0.040741	-0.015564	-0.003662	0.003357
54.96	0.002899	0.014801	0.14221	-0.003662	0.023651	-0.010223	0.023041	0.007629	0.007629	-0.055695	0.016022	-0.004578	0.23956	-0.030518	-0.027771	-0.005035	0.016327	-0.040283	-0.22263	0.007629	-0.019073	0.001526	0.14404	-0.074768	0.023956	-0.004272	0.029449	-0.00351	-0.063477	-0.023804	-0.00061	-0.002441
54.961	0.002747	0.026703	0.17731	-0.007782	0.019836	-0.050049	0.03479	0.00061	0.035095	-0.12299	0.015106	0.001221	0.10483	-0.035248	-0.021057	0.005646	0.010681	-0.027161	-0.14633	-0.031433	-0.024719	-0.009308	0.075226	-0.082397	0.014954	-0.005798	-0.021667	0.001068	-0.060425	-0.046082	-0.002747	0.0177
54.962	0.002289	0.028534	0.10346	0.009308	0.002899	-0.038452	0.019836	0.002441	0.023956	-0.071716	-0.030975	0.006561	-0.21606	0.034332	0.012512	0.004425	0.000305	-0.011749	-0.13473	-0.077667	-0.014191	0.01709	0.066376	-0.084229	0.042572	0.004578	-0.048523	0.001526	-0.030518	-0.063324	-0.004883	0.023956
